<svg width="109" height="17" viewBox="0 0 109 17" fill="none" xmlns="http://www.w3.org/2000/svg">
<g clip-path="url(#clip0_61_129)">
<path d="M102.824 1.68971L103.689 4.27677H106.482C108.882 4.27677 109.879 7.26981 107.935 8.64692L105.673 10.2469L106.539 12.834C107.282 15.0628 104.669 16.9096 102.726 15.5405L100.464 13.9405L98.2022 15.5405C96.2589 16.9176 93.646 15.0628 94.3891 12.834L95.2546 10.2469L92.9928 8.64692C91.0495 7.27777 92.0457 4.27677 94.4462 4.27677H97.2387L98.1043 1.68971C98.8473 -0.539148 102.081 -0.539148 102.824 1.68971Z" fill="#CA9E72"/>
</g>
<g clip-path="url(#clip1_61_129)">
<path d="M57.1849 1.68971L57.9995 4.27677H60.6278C62.8872 4.27677 63.8247 7.26981 61.9957 8.64692L59.867 10.2469L60.6816 12.834C61.3809 15.0628 58.9217 16.9096 57.0927 15.5405L54.964 13.9405L52.8353 15.5405C51.0063 16.9176 48.5471 15.0628 49.2464 12.834L50.061 10.2469L47.9323 8.64692C46.1033 7.27777 47.0409 4.27677 49.3002 4.27677H51.9285L52.7431 1.68971C53.4424 -0.539148 56.4856 -0.539148 57.1849 1.68971Z" fill="#CA9E72"/>
</g>
<g clip-path="url(#clip2_61_129)">
<path d="M80.185 1.68971L80.9996 4.27677H83.6279C85.8872 4.27677 86.8248 7.26981 84.9958 8.64692L82.867 10.2469L83.6816 12.834C84.381 15.0628 81.9218 16.9096 80.0928 15.5405L77.9641 13.9405L75.8353 15.5405C74.0063 16.9176 71.5472 15.0628 72.2465 12.834L73.0611 10.2469L70.9324 8.64692C69.1034 7.27777 70.0409 4.27677 72.3003 4.27677H74.9285L75.7431 1.68971C76.4425 -0.539148 79.4857 -0.539148 80.185 1.68971Z" fill="#CA9E72"/>
</g>
<g clip-path="url(#clip3_61_129)">
<path d="M34.185 1.68971L34.9996 4.27677H37.6279C39.8872 4.27677 40.8248 7.26981 38.9958 8.64692L36.867 10.2469L37.6816 12.834C38.381 15.0628 35.9218 16.9096 34.0928 15.5405L31.9641 13.9405L29.8353 15.5405C28.0063 16.9176 25.5472 15.0628 26.2465 12.834L27.0611 10.2469L24.9324 8.64692C23.1034 7.27777 24.0409 4.27677 26.3003 4.27677H28.9285L29.7431 1.68971C30.4425 -0.539148 33.4857 -0.539148 34.185 1.68971Z" fill="#CA9E72"/>
</g>
<g clip-path="url(#clip4_61_129)">
<path d="M11.8238 1.68971L12.6893 4.27677H15.4818C17.8824 4.27677 18.8785 7.26981 16.9352 8.64692L14.6734 10.2469L15.5389 12.834C16.282 15.0628 13.6691 16.9096 11.7258 15.5405L9.464 13.9405L7.20224 15.5405C5.25891 16.9176 2.64604 15.0628 3.38908 12.834L4.25459 10.2469L1.99282 8.64692C0.0494981 7.27777 1.04566 4.27677 3.44623 4.27677H6.23874L7.10425 1.68971C7.84729 -0.539148 11.0807 -0.539148 11.8238 1.68971Z" fill="#CA9E72"/>
</g>
<defs>
<clipPath id="clip0_61_129">
<rect width="17" height="16" fill="white" transform="translate(91.964 0.0180664)"/>
</clipPath>
<clipPath id="clip1_61_129">
<rect width="16" height="16" fill="white" transform="translate(46.964 0.0180664)"/>
</clipPath>
<clipPath id="clip2_61_129">
<rect width="16" height="16" fill="white" transform="translate(69.964 0.0180664)"/>
</clipPath>
<clipPath id="clip3_61_129">
<rect width="16" height="16" fill="white" transform="translate(23.964 0.0180664)"/>
</clipPath>
<clipPath id="clip4_61_129">
<rect width="17" height="16" fill="white" transform="translate(0.96402 0.0180664)"/>
</clipPath>
</defs>
</svg>
